<?xml version="1.0" encoding="UTF-8"?>
<!DOCTYPE svg PUBLIC "-//W3C//DTD SVG 1.0//EN" "http://www.w3.org/TR/2001/REC-SVG-20010904/DTD/svg10.dtd">
<!-- Creator: CorelDRAW X7 -->
<svg xmlns="http://www.w3.org/2000/svg" xml:space="preserve" width="16.9332mm" height="16.9332mm" version="1.0" style="shape-rendering:geometricPrecision; text-rendering:geometricPrecision; image-rendering:optimizeQuality; fill-rule:evenodd; clip-rule:evenodd"
viewBox="0 0 1693 1693"
 xmlns:xlink="http://www.w3.org/1999/xlink">
 <defs>
  <style type="text/css">
   <![CDATA[
    .fil0 {fill:#F0892A}
   ]]>
  </style>
 </defs>
 <g id="Layer_x0020_1">
  <metadata id="CorelCorpID_0Corel-Layer"/>
  <g id="_1674500871376">
   <path class="fil0" d="M475 195c27,18 55,106 63,135 11,36 35,131 35,165 -15,0 -106,12 -113,15 0,-25 -9,-70 -9,-122 0,-18 -4,-27 -3,-41 3,-46 3,-117 27,-152zm-390 636l0 -4c0,-6 3,-12 9,-16 16,-12 280,-48 298,-50 27,-3 59,-8 86,-10 57,-2 50,-3 48,-17 -5,-37 -25,-159 -25,-182 -20,0 -36,4 -56,6l-261 37c-18,3 -33,1 -38,-18 -12,-43 1,-126 13,-165 27,-89 57,-33 57,-30 0,14 -5,21 -9,30 -18,49 -18,83 -18,134 28,0 51,-9 80,-9 0,-23 -3,-34 -3,-56 0,-75 14,-134 42,-197l9 -18c0,0 1,0 1,-1 1,-3 5,1 -1,-5 -10,9 -20,18 -30,27 -10,9 -14,24 -33,24 -13,0 -23,-7 -23,-24 0,-11 17,-25 24,-32 108,-108 269,-142 414,-79 20,9 41,20 58,31 57,38 91,80 125,137 15,25 42,96 42,134 0,16 -17,21 -30,23l-136 18c-30,3 -159,24 -182,24l27 199c42,0 80,-6 122,-5 41,0 78,-3 122,-3 141,0 229,5 360,15 107,8 254,32 361,49 38,6 71,6 71,31 0,41 -55,18 -98,11l-238 -36 -298 -23c-126,-1 -271,-1 -393,9 0,45 21,86 -15,86 -23,0 -24,-11 -26,-33 -3,-16 -7,-35 -7,-50l-222 25c-35,6 -71,10 -105,17 -17,3 -34,6 -53,10 -16,2 -32,8 -51,8 -9,0 -17,-11 -18,-22zm318 -502l3 119c2,22 6,43 6,68 -30,1 -64,12 -95,12l-3 -62c0,-74 26,-174 76,-224 8,-8 14,-17 25,-20 -7,15 -12,81 -12,107zm238 -113c35,8 76,42 101,62 42,32 97,124 102,179l-81 11c-4,-55 -35,-124 -60,-171l-39 -56c-8,-11 -16,-15 -23,-25zm-101 -12c65,15 133,120 154,182l25 89c-18,0 -34,4 -51,6 -87,9 -20,30 -94,-192l-34 -85z"/>
   <path class="fil0" d="M790 1266c-80,0 -78,2 -160,-15 -32,-7 -65,-15 -100,-22 -112,-22 -157,-28 -270,-28 -47,0 -169,13 -169,50 0,8 13,24 17,24 22,0 48,-26 143,-26 76,0 104,-2 183,10 185,29 307,90 490,29 23,-8 45,-14 67,-23 144,-56 272,-70 430,-70l103 4c27,4 85,15 85,-16 0,-35 -49,-25 -95,-30 -135,-15 -324,0 -439,36 -80,25 -212,77 -285,77z"/>
   <path class="fil0" d="M740 1159c-152,0 -263,-82 -443,-108 -56,-8 -124,-2 -182,10 -19,4 -28,12 -30,21l0 10c2,10 12,19 23,18 10,0 27,-6 38,-8 115,-22 211,2 313,37 72,24 129,49 210,61 146,22 247,-29 360,-100 11,-6 35,-19 35,-33 0,-15 -13,-29 -28,-25 -23,5 -152,117 -296,117z"/>
   <path class="fil0" d="M1201 388c0,-42 4,-59 35,-90 9,-9 18,-16 32,-22 31,-12 56,-12 87,0 35,13 69,54 69,94 0,37 -5,64 -32,91 -68,67 -191,19 -191,-73zm-48 -12c0,28 5,46 13,68 4,8 10,18 14,25 17,25 38,42 66,55 42,20 89,22 131,1 16,-8 34,-18 48,-32 101,-101 24,-271 -105,-271 -55,0 -84,10 -121,48 -24,23 -46,61 -46,106z"/>
   <path class="fil0" d="M1138 990c0,44 54,10 57,9 42,-17 60,-28 110,-42 172,-48 272,-24 287,-28 8,-3 15,-11 17,-21l0 -7c-2,-9 -10,-17 -27,-18 -148,-13 -285,14 -413,78 -14,7 -31,10 -31,29z"/>
   <path class="fil0" d="M1126 1448c0,14 10,24 24,24l286 0c29,0 34,-48 -9,-48l-268 0c-18,0 -33,6 -33,24z"/>
   <path class="fil0" d="M231 1365c0,21 17,26 38,26l119 0c61,0 37,-47 21,-47l-155 0c-12,0 -23,9 -23,21z"/>
   <path class="fil0" d="M972 1585c0,14 9,24 23,24l155 0c21,0 29,-45 -3,-45l-157 0c-9,0 -18,12 -18,21z"/>
   <path class="fil0" d="M1507 379c0,32 43,24 78,24 13,0 22,-9 24,-19l0 -7c-2,-11 -12,-21 -33,-21 -20,0 -69,-6 -69,23z"/>
   <path class="fil0" d="M1016 379c0,32 38,24 78,24 28,0 34,-47 -9,-47 -25,0 -69,-6 -69,23z"/>
   <path class="fil0" d="M1153 623c0,1 7,10 8,11 32,26 67,-60 65,-69 -3,-14 -26,-30 -42,-9 -4,6 -9,14 -13,20 -8,13 -18,26 -18,47z"/>
   <path class="fil0" d="M1472 620c0,-16 -11,-29 -19,-43 -7,-13 -15,-31 -29,-31 -15,0 -27,13 -25,26 0,4 29,61 40,66 13,6 33,-6 33,-18z"/>
   <path class="fil0" d="M1123 293c14,0 22,-12 23,-22 1,-12 -7,-18 -16,-23 -9,-6 -46,-28 -54,-28 -21,0 -35,30 -10,44 11,7 46,29 57,29z"/>
   <path class="fil0" d="M1076 540c6,0 47,-23 55,-28 10,-7 16,-12 15,-24 -1,-10 -2,-9 -7,-14 -14,-16 -27,-5 -42,4 -18,10 -47,21 -44,40 2,11 12,22 23,22z"/>
   <path class="fil0" d="M1481 269c0,58 86,-10 89,-15 4,-9 2,-18 -4,-25 -14,-19 -33,-4 -46,5 -13,8 -39,15 -39,35z"/>
   <path class="fil0" d="M1421 213c20,0 23,-15 31,-29 5,-9 20,-30 20,-40 0,-18 -26,-41 -47,-5 -10,17 -49,74 -4,74z"/>
   <path class="fil0" d="M1549 540c10,0 20,-10 23,-20 6,-27 -70,-54 -70,-54 -20,0 -34,27 -10,44 7,5 50,30 57,30z"/>
   <path class="fil0" d="M1153 144c0,6 30,69 45,69 52,0 16,-50 3,-72 -24,-40 -48,-14 -48,3z"/>
   <path class="fil0" d="M1290 106c0,54 -8,77 24,77 29,0 21,-31 21,-77 0,-12 -9,-19 -18,-21l-10 0c-9,1 -17,8 -17,21z"/>
   <path class="fil0" d="M1290 594l0 59c0,30 45,30 45,0 0,-35 8,-77 -21,-77 -11,0 -24,8 -24,18z"/>
   <path class="fil0" d="M1022 876c0,31 45,31 45,0 0,-12 -9,-23 -21,-23 -14,0 -24,9 -24,23z"/>
   <path class="fil0" d="M269 930c0,13 4,27 21,27 28,0 30,-48 3,-48 -14,0 -24,7 -24,21z"/>
   <path class="fil0" d="M796 1034c0,48 45,28 45,6 0,-32 -45,-28 -45,-6z"/>
  </g>
 </g>
</svg>
