<?xml version="1.0" encoding="UTF-8"?>
<!DOCTYPE svg PUBLIC "-//W3C//DTD SVG 1.0//EN" "http://www.w3.org/TR/2001/REC-SVG-20010904/DTD/svg10.dtd">
<!-- Creator: CorelDRAW X7 -->
<svg xmlns="http://www.w3.org/2000/svg" xml:space="preserve" width="16.9332mm" height="16.9332mm" version="1.0" style="shape-rendering:geometricPrecision; text-rendering:geometricPrecision; image-rendering:optimizeQuality; fill-rule:evenodd; clip-rule:evenodd"
viewBox="0 0 1693 1693"
 xmlns:xlink="http://www.w3.org/1999/xlink">
 <defs>
  <style type="text/css">
   <![CDATA[
    .fil0 {fill:#F0892A}
   ]]>
  </style>
 </defs>
 <g id="Layer_x0020_1">
  <metadata id="CorelCorpID_0Corel-Layer"/>
  <path class="fil0" d="M1418 1469l75 0 0 92 -60 0c0,-19 -4,-29 -7,-46 -3,-14 -7,-34 -8,-46zm191 -101l0 52c-2,32 -14,49 -69,49l0 98c0,26 -15,42 -41,42l-63 0c-14,-2 -26,-7 -35,-16 -14,-16 -29,-101 -30,-124l-724 0c-40,0 -35,-39 -14,-44 16,-4 779,-1 880,-1 12,0 51,7 51,-9 0,-11 6,-44 -9,-44l-1283 0c-7,0 -9,2 -9,8 0,40 -11,46 33,45l199 0c17,0 63,-8 63,18 0,26 -19,27 -42,27 -20,0 -39,0 -59,0 -1,11 -6,34 -8,45 -8,40 -7,95 -61,95l-60 0c-23,-3 -41,-13 -41,-42l0 -98c-33,0 -68,-5 -68,-48 0,-33 -9,-71 25,-90 14,-8 38,-5 58,-5l-170 -250c-10,-15 -19,-27 -29,-42 -12,-19 -18,-37 -18,-54l0 -5c1,-46 38,-81 77,-81 50,0 71,24 92,57 13,19 164,234 167,247l60 0c0,-39 24,-79 50,-104 4,-4 7,-6 11,-10 68,-63 153,-50 242,-50 64,0 84,89 34,120 -57,35 -155,-20 -198,44l268 0 0 -301c0,-40 48,-40 48,0l0 301 42 0 0 -464c-10,-3 -16,-8 -18,-18 -12,3 -13,12 -24,18 0,25 6,74 -18,74 -35,0 -30,-22 -30,-51 -13,1 -11,3 -26,3 -39,0 -88,4 -123,-12 -13,-6 -34,-17 -38,-32 -11,3 -14,9 -22,17 -6,6 -15,12 -23,15 -17,8 -40,12 -65,12 -49,0 -103,3 -138,-29 -58,-52 -36,-116 -15,-180 44,-134 148,-245 273,-308 14,-7 26,-12 40,-18 45,-20 90,-25 137,-36 0,-36 -2,-51 13,-74 10,-16 31,-30 56,-30 60,0 68,54 68,104 54,4 110,21 156,43 21,11 118,60 118,79 0,16 -6,30 -23,29 -9,-1 -23,-12 -30,-18 -44,-33 -146,-81 -203,-83 104,91 167,221 190,361 4,22 6,62 14,78 26,47 81,35 141,35 32,0 63,-28 63,-60 0,-74 -45,-154 -85,-212 -10,-15 -37,-38 -37,-56 0,-11 11,-21 24,-21 17,0 22,13 30,24 42,51 75,108 96,172 7,22 20,61 20,87 0,73 -56,113 -125,113 -37,0 -85,3 -117,-12 -21,-9 -25,-22 -41,-32 -10,7 -3,3 -10,11 -40,39 -100,33 -154,33 -15,0 -13,-2 -27,-3l0 441 432 0c34,0 57,5 76,22 44,36 29,76 22,106 20,0 26,1 37,11 7,7 17,18 17,31zm-1215 193l-59 0 0 -92 74 0c0,12 -5,32 -8,46 -3,17 -7,27 -7,46zm1072 -235l-857 0 0 -80 866 0c54,0 61,80 -9,80zm-905 -72l0 72 -39 0c0,-81 -9,-135 36,-193 18,-23 59,-51 98,-51 34,0 112,-4 140,3 10,44 -7,36 -77,36 -52,0 -104,-4 -139,54 -13,22 -19,46 -19,79zm-432 -273c0,-23 19,-41 39,-41 25,0 34,16 46,33 22,34 43,63 65,96 15,23 104,157 117,166 22,15 48,11 82,11l0 80c-113,0 -114,9 -163,-64l-126 -184c-10,-16 -60,-81 -60,-97zm1000 -268c-62,0 -149,15 -149,-69l1 -393c23,13 64,51 80,72 51,67 81,111 106,197 10,35 25,89 25,130 0,33 -30,63 -63,63zm-407 -66c0,-91 48,-207 97,-281 11,-16 21,-29 33,-44 10,-12 64,-66 81,-71l0 393c0,38 -27,69 -63,69 -56,0 -148,15 -148,-66zm-110 66c-67,0 -133,13 -149,-51 -10,-41 35,-140 55,-176 63,-113 175,-200 301,-235 11,-3 35,-10 49,-12 -11,16 -31,31 -44,46 -6,5 -6,6 -10,11 -149,185 -126,333 -147,380 -8,17 -32,37 -55,37zm324 -560c0,-31 42,-24 42,-3l0 36 -42 0 0 -33z"/>
 </g>
</svg>
