<?xml version="1.0" encoding="UTF-8"?>
<!DOCTYPE svg PUBLIC "-//W3C//DTD SVG 1.0//EN" "http://www.w3.org/TR/2001/REC-SVG-20010904/DTD/svg10.dtd">
<!-- Creator: CorelDRAW X7 -->
<svg xmlns="http://www.w3.org/2000/svg" xml:space="preserve" width="16.9332mm" height="16.9332mm" version="1.0" style="shape-rendering:geometricPrecision; text-rendering:geometricPrecision; image-rendering:optimizeQuality; fill-rule:evenodd; clip-rule:evenodd"
viewBox="0 0 1693 1693"
 xmlns:xlink="http://www.w3.org/1999/xlink">
 <defs>
  <style type="text/css">
   <![CDATA[
    .fil0 {fill:#F0892A}
   ]]>
  </style>
 </defs>
 <g id="Layer_x0020_1">
  <metadata id="CorelCorpID_0Corel-Layer"/>
  <g id="_1674614619744">
   <path class="fil0" d="M1356 1397l0 -107c15,0 33,0 44,-6 0,34 0,68 0,101 1,53 -44,36 -44,12zm-462 0l0 -107 45 0 0 104c0,34 -45,33 -45,3zm235 -732l45 0 0 485 -45 0 0 -485zm206 485l-113 0 0 -59 152 0c-3,10 -19,33 -26,46 -4,7 -4,13 -13,13zm-688 -152l435 0 0 45 -435 0 0 -45zm-140 0l93 0 0 45 -93 0 0 -45zm899 45l-184 0 0 -45 208 0c-4,8 -7,14 -12,21 -5,9 -9,14 -12,24zm-30 199l-506 0c-16,0 -23,-10 -23,-23 0,-30 44,-21 95,-21l357 0c79,0 55,18 129,-106l79 -130c13,-19 42,-15 42,10 0,11 -12,27 -17,36l-125 208c-7,12 -12,26 -31,26zm-154 -577l175 0 13 71c7,33 41,194 41,215l-229 0 0 -286zm-715 259c0,-52 93,-52 93,0l0 27 -93 0 0 -27zm-140 0c0,-49 93,-58 93,6l0 21 -93 0 0 -27zm786 -566c48,32 78,218 78,262l-158 0c0,-44 35,-249 80,-262zm-458 271c0,21 12,36 30,36l357 0 0 286 -435 0c0,-35 -2,-59 -24,-83 -29,-31 -73,-40 -112,-21 -13,7 -17,14 -27,20 -11,-6 -15,-13 -28,-20 -63,-31 -136,16 -136,83l0 21 -84 0c21,-90 47,-237 66,-333 4,-18 8,-38 11,-55 4,-19 10,-39 10,-59l437 0c-2,8 -11,18 -18,29 -7,10 -12,19 -18,30 -7,11 -29,54 -29,66zm625 -235c4,-5 2,-3 21,6 7,3 12,6 20,10 13,6 23,13 35,21 44,29 89,70 118,114 11,17 36,55 41,75l-122 0c-2,-30 -31,-100 -44,-126 -24,-51 -69,-99 -69,-100zm-450 226l-122 0c5,-17 30,-58 40,-73 57,-78 104,-111 187,-153l6 -3c5,4 2,1 -17,25 -35,46 -53,83 -74,138 -6,15 -18,50 -20,66zm355 -244c68,36 105,101 136,168 7,15 23,59 24,76l-107 0c-1,-19 -6,-45 -8,-65 -8,-57 -20,-110 -40,-163 -1,-4 -4,-12 -5,-16zm-200 244l-107 0c20,-86 63,-168 130,-224 11,-8 20,-13 31,-20l-19 56c-11,35 -20,85 -26,123 -2,20 -5,47 -9,65zm104 -324c0,-30 45,-30 45,0l0 15 -45 0 0 -15zm-47 21c-43,3 -104,24 -142,42 -23,11 -24,8 -55,8l-187 0c-8,0 -45,-4 -45,18 0,36 38,27 87,27 37,0 75,0 113,0l-40 35c-15,16 -22,10 -68,10l-309 0c-164,0 -146,-17 -163,66 -9,50 -87,435 -87,455 0,11 11,20 24,20l250 0 0 45 -307 0c-36,0 -17,-54 -8,-100 8,-39 16,-79 24,-120l70 -358c13,-64 5,-53 90,-53l214 0c24,0 51,3 51,-21 0,-11 -9,-24 -18,-24l-316 0c-27,0 -50,23 -57,44 -7,22 -46,228 -52,261 -12,58 -22,114 -34,171 -7,38 -32,153 -32,182 0,40 34,66 80,66l295 0c0,20 -8,74 24,74 31,0 23,-54 23,-74l93 0c0,20 -8,74 23,74 32,0 24,-54 24,-74l435 0 0 59 -209 0c-91,0 -95,118 -26,134 0,33 -4,92 0,122 11,78 140,91 140,-27l0 -89 321 0c0,57 -8,115 17,150 24,36 87,35 112,-6 25,-41 0,-178 15,-205 6,-10 11,-18 17,-28l100 -165c6,-10 11,-18 17,-28 17,-31 9,-47 3,-79l-18 -90c-9,-41 -36,-29 -45,-15 -8,13 10,78 11,79 -22,0 -30,1 -44,9 -9,-39 -18,-81 -25,-122 -4,-25 -23,-107 -23,-125l45 0c1,15 6,34 9,50 12,62 55,35 49,2 -4,-17 -9,-36 -11,-52 13,0 39,2 50,-1 15,-5 22,-18 22,-35 0,-21 -47,-97 -59,-113 -63,-85 -152,-154 -255,-183 -19,-6 -53,-16 -73,-16 0,-26 -1,-47 -18,-66 -28,-34 -122,-45 -122,66z"/>
   <path class="fil0" d="M353 766c0,36 60,18 79,8 21,-10 25,-20 37,-23 16,11 37,36 80,36 87,0 78,-28 107,-36 29,20 39,36 92,36 18,0 27,-16 22,-30 -11,-28 -46,-1 -84,-42 -49,-52 -59,27 -125,27 -19,0 -40,-7 -51,-17 -3,-2 -7,-5 -9,-6 -14,-13 -33,-38 -64,-6 -42,42 -84,16 -84,53z"/>
   <path class="fil0" d="M353 635c0,44 73,17 97,-1 7,-5 12,-9 19,-14 34,52 160,50 160,6 0,-40 -46,-15 -59,-15l-21 0c-48,0 -44,-41 -86,-41 -18,0 -32,26 -52,34 -14,6 -20,6 -36,9 -12,3 -22,9 -22,22z"/>
  </g>
 </g>
</svg>
