<?xml version="1.0" encoding="UTF-8"?>
<!DOCTYPE svg PUBLIC "-//W3C//DTD SVG 1.0//EN" "http://www.w3.org/TR/2001/REC-SVG-20010904/DTD/svg10.dtd">
<!-- Creator: CorelDRAW X7 -->
<svg xmlns="http://www.w3.org/2000/svg" xml:space="preserve" width="16.9332mm" height="16.9332mm" version="1.0" style="shape-rendering:geometricPrecision; text-rendering:geometricPrecision; image-rendering:optimizeQuality; fill-rule:evenodd; clip-rule:evenodd"
viewBox="0 0 1693 1693"
 xmlns:xlink="http://www.w3.org/1999/xlink">
 <defs>
  <style type="text/css">
   <![CDATA[
    .fil0 {fill:#F0892A}
   ]]>
  </style>
 </defs>
 <g id="Layer_x0020_1">
  <metadata id="CorelCorpID_0Corel-Layer"/>
  <g id="_1674614619072">
   <path class="fil0" d="M85 1085c0,39 44,11 127,42 54,20 79,29 144,29 137,0 190,-92 369,-22 74,30 169,30 243,0 232,-91 260,91 511,-6 83,-32 130,-4 130,-43 0,-29 -28,-21 -51,-21 -77,0 -124,45 -196,45 -142,0 -118,-27 -206,-42 -52,-9 -57,-3 -92,-3 -14,0 -20,1 -32,3 -98,17 -66,42 -206,42 -86,0 -143,-66 -286,-42 -100,17 -65,42 -208,42 -72,0 -123,-45 -194,-45 -24,0 -53,-8 -53,21z"/>
   <path class="fil0" d="M347 1225c0,33 23,26 53,23 27,-2 43,-7 65,-15 49,-16 71,-29 138,-29 48,0 82,10 118,25 77,30 174,30 252,0 41,-17 69,-25 124,-25 59,0 88,15 131,29 22,8 38,13 65,15 30,3 54,10 54,-23 0,-8 -11,-16 -18,-19 -7,-3 -35,1 -91,-18 -38,-13 -71,-29 -121,-29 -53,0 -68,-5 -129,14 -89,28 -56,31 -165,31 -65,0 -98,-34 -177,-44 -20,-3 -46,-1 -67,-1 -58,2 -77,13 -121,28 -22,8 -34,11 -59,15 -8,1 -52,-1 -52,23z"/>
   <path class="fil0" d="M489 963c0,13 -3,50 24,50 12,0 20,-8 23,-19 6,-22 -6,-42 12,-113 20,-79 79,-148 149,-187 101,-57 220,-49 318,11 20,12 38,28 54,44 11,11 14,15 23,28 37,49 52,1 52,-2 0,-15 -39,-55 -50,-66 -126,-128 -356,-139 -500,4 -53,54 -105,143 -105,250z"/>
   <path class="fil0" d="M302 561c19,0 31,9 48,9 16,0 21,-33 89,-33 49,0 86,40 95,80l-303 0c1,-15 14,-29 24,-38 9,-8 31,-18 47,-18zm6 -45c-39,0 -64,9 -93,38 -19,19 -73,111 4,111l330 0c64,0 23,-90 6,-113 -48,-63 -136,-81 -197,-42 -2,1 -11,7 -13,8 -8,3 -24,-2 -37,-2z"/>
   <path class="fil0" d="M1091 885c62,0 63,33 89,33 17,0 10,-6 51,-6 30,0 59,28 65,54l-303 0c9,-42 47,-81 98,-81zm-122 128l351 0c63,0 16,-149 -104,-149 -31,0 -17,14 -46,-4 -61,-39 -148,-18 -186,26 -42,50 -61,127 -15,127z"/>
   <path class="fil0" d="M832 1347c149,0 125,-41 259,-48 11,0 9,1 16,-5 13,-11 11,-35 -9,-40 -6,-1 -21,0 -34,0 -73,0 -124,45 -194,45 -99,0 -88,-3 -175,-33 -20,-7 -85,-16 -101,-11 -10,3 -18,11 -17,22 3,27 31,22 56,25 30,3 41,5 66,14 41,14 78,31 133,31z"/>
   <path class="fil0" d="M228 966c0,17 12,24 29,24l134 0c31,0 36,-48 -6,-48l-125 0c-17,0 -32,6 -32,24z"/>
   <path class="fil0" d="M823 373l0 131c0,41 47,41 47,0l0 -131c0,-35 -47,-35 -47,0z"/>
   <path class="fil0" d="M1144 644c0,17 11,24 27,24 12,0 119,-107 119,-119 0,-22 -4,-27 -27,-27 -9,0 -79,76 -91,87 -8,8 -28,23 -28,35z"/>
   <path class="fil0" d="M1397 1219c0,46 77,7 82,4 21,-14 8,-43 -10,-43 -11,0 -29,9 -41,13 -14,4 -31,6 -31,26z"/>
   <path class="fil0" d="M1243 793c0,46 89,4 89,-15 0,-46 -47,-19 -63,-12 -14,5 -26,9 -26,27z"/>
   <path class="fil0" d="M361 769c0,27 12,26 45,39 7,3 18,8 26,7 14,-3 39,-31 -8,-49 -7,-3 -31,-15 -39,-15 -11,0 -24,9 -24,18z"/>
   <path class="fil0" d="M998 543c0,13 4,27 21,27 19,0 22,-13 28,-27 6,-17 14,-26 14,-45 0,-12 -31,-38 -49,8 -4,9 -14,29 -14,37z"/>
   <path class="fil0" d="M632 498c0,19 8,28 15,45 19,49 48,19 48,9 0,-22 -4,-21 -13,-44 -19,-50 -50,-20 -50,-10z"/>
   <path class="fil0" d="M207 1204c0,16 15,22 26,27 9,3 32,12 42,12 18,0 40,-36 -5,-49 -24,-7 -23,-11 -45,-11 -9,0 -18,12 -18,21z"/>
  </g>
 </g>
</svg>
